<svg width="107" height="74" viewBox="0 0 107 74" fill="none" xmlns="http://www.w3.org/2000/svg">
<path fill-rule="evenodd" clip-rule="evenodd" d="M0.5 70.9288L22.16 51.0102C24.9075 48.7254 26.7244 46.2007 29.7282 44.5313C28.5042 43.5427 30.0473 44.2501 28.3802 43.8961C26.9511 43.5926 24.7103 44.3261 22.9749 44.513C20.1492 44.8171 18.3093 44.9409 15.6866 43.9851C19.1069 43.6377 21.9572 42.5148 24.7096 41.1112C26.038 40.4338 27.2553 39.5506 28.712 38.873L33.7559 36.8643C27.7847 34.4395 24.013 34.6261 19.4559 32.9738C17.5499 32.2826 16.9079 31.6147 15.6265 31.0125C19.4093 31.1488 21.4894 31.7977 25.663 31.1698C30.0138 30.5152 30.9155 30.7555 34.889 30.6606C32.2824 26.1294 23.9023 24.1586 20.4068 18.8874C23.4334 19.8411 25.1594 21.2735 29.1931 22.1253C34.1242 23.1666 34.4113 23.3498 38.2909 24.9992C37.4427 19.3959 30.0294 15.3363 28.5544 8.52679C34.2294 14.8101 34.7323 13.7979 39.7279 17.3171L43.588 20.6719C43.7566 13.811 39.6114 9.73663 39.8327 2.05878C41.6294 4.79267 42.5214 7.9679 44.5573 10.4168C49.1798 15.977 46.9935 13.6029 49.6566 18.2434C53.1244 14.4931 49.8474 4.49261 52.7976 0C54.0196 12.0343 54.8214 8.20404 56.1297 15.8212L57.0943 18.4362C59.2633 14.3172 62.5729 4.77897 65.5676 1.92591C65.3026 4.65553 64.0618 7.01305 63.8833 10.5487C63.625 15.6699 63.9186 16.1118 62.5721 20.8753C67.9153 19.1236 70.6902 10.7653 77.0186 8.48142C75.3228 11.3436 74.3593 11.1349 72.1895 16.4526C68.6969 25.0119 69.3086 22.0473 67.8321 25.232C74.0803 24.7666 79.6697 18.0528 85.6252 18.6195C82.216 19.3383 76.7487 26.2795 74.9507 28.0565C73.9026 29.0923 72.1649 30.078 71.0216 31.1309C76.8817 32.5743 83.9253 28.3842 89.1839 30.7683L72.1782 37.6355C73.6915 39.3085 86.1424 41.921 89.6873 43.2867C88.3237 44.065 85.0103 43.3291 82.4011 43.5165C79.9325 43.6938 77.7112 44.2934 75.1249 44.4949L106.5 74C98.318 67.7133 90.3523 61.8335 82.0747 55.4511C74.2272 49.4004 64.3184 40.3661 54.8647 39.4748C40.8357 38.1522 32.9136 47.344 25.1334 52.9651C17.232 58.6739 8.24657 65.7641 0.5 70.9288Z" fill="#2D1E70"/>
</svg>
